<?xml version="1.0" encoding="utf-8"?>
<!-- Generator: Adobe Illustrator 19.0.0, SVG Export Plug-In . SVG Version: 6.00 Build 0)  -->
<svg version="1.1" id="Layer_1" xmlns="http://www.w3.org/2000/svg" xmlns:xlink="http://www.w3.org/1999/xlink" x="0px" y="0px"
	 viewBox="0 0 960 560" style="enable-background:new 0 0 960 560;" xml:space="preserve">
<style type="text/css">
	.st0{fill:#FAFDFD;}
	.st1{fill:#2BC5A6;}
	.st2{fill:#03CBFE;}
	.st3{fill:#016699;}
	.st4{fill:#02689A;}
	.st5{fill:#0099CB;}
	.st6{fill:#010706;}
	.st7{fill:#020B09;}
</style>
<g id="XMLID_1_">
	<path id="XMLID_62_" class="st0" d="M436.4,279.9c0-20.6,0.1-41.3-0.1-61.9c0-2.4,0.6-2.6,2.7-2.6c27.8,0.1,55.5,0.1,83.3,0
		c2.4,0,2.6,0.6,2.6,2.7c-0.1,41.3-0.1,82.5,0,123.8c0,2.4-0.6,2.6-2.7,2.6c-27.8-0.1-55.5-0.1-83.3,0c-2.4,0-2.6-0.6-2.6-2.7
		C436.5,321.1,436.4,300.5,436.4,279.9z M447.9,326l0.2,0.1l0.1-0.2c0.3,0,0.7,0,1,0c-1.6,3.3-4,6.2-4.1,10.2
		c-0.1,4.6,0.9,5.8,5.5,5.8c6.4,0,12.7-0.3,19.1,0.1c5.1,0.3,8.5-2.1,11.5-5.6c0.9-1.1,1.6-2.9,3.4-2.1c1.8,0.8,1.8,2.5,1.4,4.2
		c-0.7,2.9,0.6,3.8,3.4,3.8c4-0.1,8,0,12,0c3.1-0.1,8-3.4,8.4-5.9c0.6-4.1,1.9-7.9,2.9-11.9c2.3-0.3,4.7,0.1,5.5-3.2
		c1.3-5.6,3.1-11,4.3-16.6c1.5-6.9-0.3-9.4-6.6-10.1c0.2-11.6,0.5-23.2,0.5-34.8c0-11.7,0.6-23.5-0.3-35.2c-0.5-6.6-1.2-7-7.8-7
		c-16,0-32-0.3-47.9,0.9c-2.8,0.2-3.5,1.7-4.1,3.9c-6.7,23.4-11.6,47-10.5,71.5c-1.1,0-2.3,0.3-3.3,0.1c-2.6-0.5-3.6,1.1-3.6,3.1
		c-0.2,8.8-0.2,17.6-0.3,26.5c0,1.6,1.1,3.1,2.4,2.6C443.4,325.3,445.6,326.7,447.9,326z"/>
	<path id="XMLID_55_" class="st1" d="M445.8,293.9c-1.1-24.5,3.8-48.1,10.5-71.5c0.6-2.2,1.3-3.7,4.1-3.9c16-1.2,31.9-0.9,47.9-0.9
		c6.6,0,7.3,0.4,7.8,7c0.9,11.7,0.3,23.5,0.3,35.2c0,11.6-0.3,23.2-0.5,34.8c-0.5,2.4-1.9,4.3-3.2,6.4c-1.1,0.8-2.3,0.8-3.6,0.8
		c-13.5-0.1-26.9-0.1-40.4-0.1c-0.5-6.3-1.4-7.2-8-7.4C455.8,294.1,450.8,294,445.8,293.9z M510.1,278.5c0-3.4-1.1-4.7-3.9-4.6
		c-3.4,0.1-6.1,2.8-6.1,6.2c0,2.6,2.6,5.1,5.4,5C508.4,285,510.1,282.5,510.1,278.5z M489.9,283.1c2.6,0,4.9-2.8,4.9-6
		c0-2.1-0.6-3.7-3.1-3.7c-3,0-5.7,2.5-5.7,5.3C486.1,281.3,486.9,283.2,489.9,283.1z"/>
	<path id="XMLID_49_" class="st2" d="M512.8,324.5c-1,3.9-2.3,7.8-2.9,11.9c-0.4,2.5-5.3,5.8-8.4,5.9c-4,0.1-8-0.1-12,0
		c-2.8,0.1-4-0.9-3.4-3.8c0.4-1.7,0.4-3.4-1.4-4.2c-1.9-0.8-2.5,1-3.4,2.1c-3,3.5-6.4,5.9-11.5,5.6c-6.3-0.4-12.7-0.1-19.1-0.1
		c-4.6,0-5.6-1.2-5.5-5.8c0.1-4,2.6-6.9,4.1-10.2c6,0.8,11.9,0.7,17.8-0.7c13.6,0.8,27.3,0.1,40.9,0.3c1.1,0,2-0.3,2.1-1.6
		C510.9,324.2,511.8,324.4,512.8,324.5z"/>
	<path id="XMLID_47_" class="st3" d="M467,325.3c-5.9,1.4-11.8,1.5-17.8,0.7c-0.3,0-0.7,0-1,0c0,0-0.2-0.1-0.2-0.1l-0.1,0.1
		c-2.3,0.7-4.5-0.7-6.9,0.1c-1.3,0.4-2.4-1-2.4-2.6c0.1-8.8,0.1-17.6,0.3-26.5c0-1.9,1-3.6,3.6-3.1c1.1,0.2,2.2-0.1,3.3-0.1
		c5,0.1,10,0.2,15,0.3c6.6,0.2,7.5,1.1,8,7.4c-0.1,5.6-0.2,11.1-0.1,16.7C468.7,320.8,468.4,323.2,467,325.3z"/>
	<path id="XMLID_46_" class="st4" d="M512.8,324.5c-0.9-0.1-1.9-0.3-2.8-0.4c0.2-1.3,0.1-2.8,0.7-4c3.2-6.1,0.9-12.8,2.1-19.2
		c1.2-2,2.7-4,3.2-6.4c6.3,0.7,8.1,3.2,6.6,10.1c-1.2,5.6-3,11-4.3,16.6C517.5,324.6,515,324.2,512.8,324.5z"/>
	<polygon id="XMLID_44_" class="st2" points="447.9,326 448,325.9 448.2,326 448.1,326.1 	"/>
	<path id="XMLID_41_" class="st5" d="M512.8,300.9c-1.2,6.3,1,13-2.1,19.2c-0.6,1.1-0.5,2.6-0.7,4c-0.1,1.3-1,1.6-2.1,1.6
		c-13.6-0.2-27.3,0.4-40.9-0.3c1.4-2.2,1.7-4.5,1.7-7.1c-0.1-5.6,0.1-11.1,0.1-16.7c13.5,0,26.9,0.1,40.4,0.1
		C510.5,301.7,511.7,301.7,512.8,300.9z"/>
	<path id="XMLID_40_" class="st6" d="M510.1,278.5c0,3.9-1.7,6.4-4.6,6.5c-2.8,0.1-5.5-2.3-5.4-5c0-3.4,2.7-6.1,6.1-6.2
		C509,273.9,510,275.1,510.1,278.5z"/>
	<path id="XMLID_39_" class="st7" d="M489.9,283.1c-3,0.1-3.9-1.8-3.9-4.3c0-2.8,2.6-5.3,5.7-5.3c2.5,0,3.1,1.6,3.1,3.7
		C494.8,280.4,492.5,283.1,489.9,283.1z"/>
</g>
</svg>
